<svg width="301" height="245" viewBox="0 0 301 245" fill="none" xmlns="http://www.w3.org/2000/svg">
<path d="M32.0144 50.6423C29.5381 50.6423 27.1633 51.7421 25.4123 53.6997C23.6612 55.6574 22.6774 58.3126 22.6774 61.0811C22.6774 63.8497 23.6612 66.5049 25.4123 68.4625C27.1633 70.4202 29.5381 71.52 32.0144 71.52C33.7623 66.9956 35.7352 62.5842 37.9238 58.3063L39.5785 55.2671C38.7429 53.8733 37.6191 52.7252 36.3024 51.9202C34.9857 51.1151 33.5148 50.6768 32.0144 50.6423V50.6423Z" fill="#010101"/>
<path d="M277.257 53.6814C277.241 51.5017 276.614 49.3824 275.466 47.6208C274.318 45.8592 272.705 44.5437 270.854 43.8587C269.003 43.1738 267.007 43.1539 265.145 43.8017C263.284 44.4495 261.65 45.7326 260.474 47.471C264.092 52.551 267.222 58.043 269.811 63.8559C271.917 63.3945 273.814 62.1256 275.173 60.2682C276.533 58.4108 277.269 56.0813 277.257 53.6814V53.6814Z" fill="#010101"/>
<path d="M22.6792 61.0815C22.6709 58.8905 23.2795 56.7521 24.4186 54.9693C25.5578 53.1864 27.1697 51.8496 29.0262 51.1479C30.8827 50.4463 32.8897 50.4156 34.7627 51.06C36.6357 51.7045 38.2799 52.9915 39.4622 54.7388C43.4677 47.4554 48.405 40.8668 54.1176 35.1824C50.0484 31.3857 44.9907 29.1609 39.6985 28.8398C16.7698 25.4042 4.95105 38.0894 2.35089 55.2674C0.850849 63.7793 2.41834 72.6092 6.71246 79.8354C11.0066 87.0615 17.6796 92.099 25.2794 93.8517C26.9495 86.3084 29.1631 78.9287 31.8981 71.7846C29.452 71.7164 27.1246 70.5907 25.4055 68.644C23.6863 66.6973 22.7091 64.0812 22.6792 61.3457V61.0815Z" stroke="#010101" strokeWidth="3.03435" strokeLinejoin="round"/>
<path d="M298.295 48.3962C295.576 31.3504 283.876 18.6651 260.947 21.9686C255.149 22.2267 249.638 24.8605 245.464 29.3683C250.772 34.4929 255.603 40.2038 259.883 46.4141L260.474 47.3391C261.369 45.9633 262.551 44.8529 263.917 44.1043C265.283 43.3557 266.792 42.9916 268.313 43.0438C269.833 43.0961 271.32 43.563 272.642 44.4039C273.965 45.2448 275.083 46.4343 275.901 47.8689C276.718 49.3034 277.21 50.9396 277.332 52.635C277.455 54.3304 277.206 56.0337 276.605 57.5967C276.005 59.1596 275.072 60.5349 273.888 61.6028C272.704 62.6708 271.304 63.399 269.811 63.7242C273.117 70.8814 275.732 78.4117 277.612 86.1878C284.649 83.8993 290.67 78.7571 294.495 71.7674C298.321 64.7778 299.675 56.4438 298.295 48.3962Z" stroke="#010101" strokeWidth="3.03435" strokeLinejoin="round"/>
<path d="M260.473 47.4712L259.882 46.5463C255.646 40.3769 250.897 34.6695 245.699 29.5005C223.598 8.22632 194.996 0.826611 153.394 2.14799C117.937 3.33723 79.1709 10.3405 54.1148 35.1824C48.4023 40.8667 43.4649 47.4553 39.4595 54.7387L37.8049 57.778C35.6376 62.0687 33.6653 66.4789 31.8954 70.9917C29.1604 78.1357 26.9468 85.5155 25.2767 93.0587C21.5207 111.033 19.6564 129.437 19.7218 147.896V147.896C19.1319 165.613 20.3614 183.347 23.3858 200.751C28.3497 217.532 44.6597 224.007 65.3427 231.275C128.188 250.523 194.886 246.866 255.745 220.836C265.333 217.187 273.619 210.193 279.383 200.883C282.574 195.333 283.874 188.859 283.401 148.028C283.814 127.375 281.747 106.754 277.256 86.7161C275.329 78.9572 272.716 71.4321 269.455 64.2527C266.949 58.3501 263.941 52.7305 260.473 47.4712V47.4712Z" fill="#72CDDC" stroke="#010101" strokeWidth="3.03435" strokeMiterlimit="10"/>
<path d="M98.9091 119.09C121.298 119.09 139.448 99.4486 139.448 75.22C139.448 50.9914 121.298 31.3502 98.9091 31.3502C76.5202 31.3502 58.3704 50.9914 58.3704 75.22C58.3704 99.4486 76.5202 119.09 98.9091 119.09Z" fill="white" stroke="#010101" strokeWidth="3.03435" strokeLinejoin="round"/>
<path d="M77.6348 93.0586C85.3371 93.0586 91.5811 86.0777 91.5811 77.4663C91.5811 68.8549 85.3371 61.874 77.6348 61.874C69.9325 61.874 63.6886 68.8549 63.6886 77.4663C63.6886 86.0777 69.9325 93.0586 77.6348 93.0586Z" fill="#010101"/>
<path d="M151.266 140.364C143.348 140.364 142.048 144.461 135.193 145.782L134.365 165.338C134.161 167.953 134.857 170.556 136.31 172.616C137.764 174.677 139.866 176.04 142.187 176.428C144.509 176.816 146.876 176.199 148.804 174.703C150.733 173.207 152.079 170.944 152.567 168.377V140.364C152.135 140.299 151.698 140.299 151.266 140.364V140.364Z" fill="white" stroke="#010101" strokeWidth="3.03435" strokeLinejoin="round"/>
<path d="M152.567 167.717C153.055 170.284 154.4 172.546 156.329 174.042C158.258 175.538 160.624 176.155 162.946 175.767C165.267 175.38 167.369 174.016 168.823 171.956C170.276 169.895 170.972 167.292 170.768 164.677L169.822 145.385C161.195 145.385 160.131 140.628 152.567 140.364V167.717V167.717Z" fill="white" stroke="#010101" strokeWidth="3.03435" strokeLinejoin="round"/>
<path d="M83.5452 84.8673C85.7645 84.8673 87.5638 82.8556 87.5638 80.3741C87.5638 77.8925 85.7645 75.8808 83.5452 75.8808C81.3259 75.8808 79.5268 77.8925 79.5268 80.3741C79.5268 82.8556 81.3259 84.8673 83.5452 84.8673Z" fill="white"/>
<path d="M180.107 123.715C176.975 119.973 172.815 117.508 168.288 116.711C166.104 119.382 163.404 121.461 160.393 122.789C157.383 124.117 154.141 124.66 150.914 124.375C147.784 124.638 144.64 124.136 141.701 122.903C138.762 121.671 136.099 119.739 133.895 117.24C128.959 118.013 124.433 120.731 121.13 124.904C119.633 126.456 118.548 128.439 117.993 130.635C117.438 132.832 117.436 135.157 117.985 137.355C118.535 139.553 119.615 141.539 121.108 143.096C122.601 144.652 124.449 145.719 126.449 146.178C129.276 146.55 132.132 146.55 134.958 146.178C141.813 144.857 143.113 140.893 151.032 140.628H152.332C159.896 140.628 160.96 145.253 169.588 145.65C171.633 145.836 173.688 145.836 175.734 145.65C177.73 145.141 179.559 144.019 181.015 142.41C182.471 140.801 183.497 138.77 183.976 136.545C184.455 134.319 184.369 131.989 183.727 129.815C183.085 127.642 181.913 125.712 180.343 124.243L180.107 123.715Z" fill="#F6D2A2" stroke="#010101" strokeWidth="3.03435" strokeLinejoin="round"/>
<path d="M151.149 124.375C154.376 124.66 157.618 124.117 160.629 122.789C163.639 121.461 166.339 119.382 168.523 116.711C169.318 115.433 169.731 113.907 169.705 112.351C169.705 105.876 161.432 100.458 151.149 100.458C140.867 100.458 132.83 105.876 132.83 112.483C132.862 114.277 133.446 116.004 134.485 117.372C136.688 119.871 139.352 121.804 142.291 123.036C145.23 124.268 148.374 124.77 151.504 124.508L151.149 124.375Z" fill="#010101"/>
<path d="M202.207 115.919C224.596 115.919 242.746 96.2775 242.746 72.0489C242.746 47.8203 224.596 28.1791 202.207 28.1791C179.818 28.1791 161.668 47.8203 161.668 72.0489C161.668 96.2775 179.818 115.919 202.207 115.919Z" fill="white" stroke="#010101" strokeWidth="3.03435" strokeLinejoin="round"/>
<path d="M183.532 91.4729C191.234 91.4729 197.478 84.492 197.478 75.8807C197.478 67.2694 191.234 60.2885 183.532 60.2885C175.83 60.2885 169.586 67.2694 169.586 75.8807C169.586 84.492 175.83 91.4729 183.532 91.4729Z" fill="#010101"/>
<path d="M189.561 84.0745C191.78 84.0745 193.579 82.0627 193.579 79.5811C193.579 77.0995 191.78 75.0878 189.561 75.0878C187.342 75.0878 185.543 77.0995 185.543 79.5811C185.543 82.0627 187.342 84.0745 189.561 84.0745Z" fill="white"/>
</svg>
